<svg width="20" height="20" viewBox="0 0 20 20" fill="none" xmlns="http://www.w3.org/2000/svg">
<path d="M1 8C1 4.13401 4.13401 1 8 1H12C15.866 1 19 4.13401 19 8V12C19 15.866 15.866 19 12 19H8C4.13401 19 1 15.866 1 12V8Z" fill="#17C964"/>
<path d="M1 8C1 4.13401 4.13401 1 8 1H12C15.866 1 19 4.13401 19 8V12C19 15.866 15.866 19 12 19H8C4.13401 19 1 15.866 1 12V8Z" stroke="#17C964" stroke-width="2"/>
<path fill-rule="evenodd" clip-rule="evenodd" d="M15.8047 5.52859C16.0651 5.78894 16.0651 6.21105 15.8047 6.4714L8.4714 13.8047C8.21106 14.0651 7.78894 14.0651 7.5286 13.8047L4.19526 10.4714C3.93491 10.2111 3.93491 9.78894 4.19526 9.52859C4.45561 9.26824 4.87772 9.26824 5.13807 9.52859L8 12.3905L14.8619 5.52859C15.1223 5.26824 15.5444 5.26824 15.8047 5.52859Z" fill="white"/>
</svg>
